<?xml version="1.0" encoding="UTF-8" standalone="no"?>
<!DOCTYPE svg PUBLIC "-//W3C//DTD SVG 1.1//EN"
 "http://www.w3.org/Graphics/SVG/1.1/DTD/svg11.dtd">
<!-- Generated by graphviz version 3.0.0 (20220226.1711)
 -->
<!-- Title: G Pages: 1 -->
<svg width="854pt" height="358pt"
 viewBox="0.00 0.00 853.50 358.00" xmlns="http://www.w3.org/2000/svg" xmlns:xlink="http://www.w3.org/1999/xlink">
<g id="graph0" class="graph" transform="scale(1 1) rotate(0) translate(4 354)">
<title>G</title>
<polygon fill="white" stroke="transparent" points="-4,4 -4,-354 849.5,-354 849.5,4 -4,4"/>
<!-- node2 -->
<g id="node1" class="node">
<title>node2</title>
<image xlink:href="C:\Users\Leige\AppData\Local\Temp/node2_7844.svg" width="141px" height="67px" preserveAspectRatio="xMinYMin meet" x="98" y="-147.5"/>
</g>
<!-- node5 -->
<g id="node2" class="node">
<title>node5</title>
<image xlink:href="C:\Users\Leige\AppData\Local\Temp/node5_7844.svg" width="141px" height="67px" preserveAspectRatio="xMinYMin meet" x="267" y="-147.5"/>
</g>
<!-- node2&#45;&gt;node5 -->
<!-- leaf3 -->
<g id="node8" class="node">
<title>leaf3</title>
<polygon fill="none" stroke="#444443" stroke-width="0" points="94,-60 0,-60 0,0 94,0 94,-60"/>
<image xlink:href="C:\Users\Leige\AppData\Local\Temp/leaf3_7844.svg" width="86px" height="52px" preserveAspectRatio="xMinYMin meet" x="4" y="-56"/>
</g>
<!-- node2&#45;&gt;leaf3 -->
<g id="edge1" class="edge">
<title>node2&#45;&gt;leaf3</title>
<path fill="none" stroke="#444443" stroke-width="0.3" d="M114.22,-76.83C107.17,-72.03 100,-67.13 93.09,-62.42"/>
<polygon fill="#444443" stroke="#444443" stroke-width="0.3" points="93.81,-61.22 89.72,-60.13 92.24,-63.54 93.81,-61.22"/>
</g>
<!-- leaf4 -->
<g id="node9" class="node">
<title>leaf4</title>
<polygon fill="none" stroke="#444443" stroke-width="0" points="202,-60 108,-60 108,0 202,0 202,-60"/>
<image xlink:href="C:\Users\Leige\AppData\Local\Temp/leaf4_7844.svg" width="86px" height="52px" preserveAspectRatio="xMinYMin meet" x="112" y="-56"/>
</g>
<!-- node2&#45;&gt;leaf4 -->
<g id="edge2" class="edge">
<title>node2&#45;&gt;leaf4</title>
<path fill="none" stroke="#444443" stroke-width="0.3" d="M162.18,-76.59C161.54,-72.47 160.88,-68.3 160.24,-64.23"/>
<polygon fill="#444443" stroke="#444443" stroke-width="0.3" points="161.61,-63.94 159.6,-60.2 158.84,-64.37 161.61,-63.94"/>
</g>
<!-- leaf6 -->
<g id="node10" class="node">
<title>leaf6</title>
<polygon fill="none" stroke="#444443" stroke-width="0" points="305,-60 209,-60 209,0 305,0 305,-60"/>
<image xlink:href="C:\Users\Leige\AppData\Local\Temp/leaf6_7844.svg" width="88px" height="52px" preserveAspectRatio="xMinYMin meet" x="213" y="-56"/>
</g>
<!-- node5&#45;&gt;leaf6 -->
<g id="edge4" class="edge">
<title>node5&#45;&gt;leaf6</title>
<path fill="none" stroke="#444443" stroke-width="0.3" d="M301.21,-76.59C296.89,-72.13 292.49,-67.6 288.24,-63.21"/>
<polygon fill="#444443" stroke="#444443" stroke-width="0.3" points="289.11,-62.1 285.32,-60.2 287.1,-64.05 289.11,-62.1"/>
</g>
<!-- leaf7 -->
<g id="node11" class="node">
<title>leaf7</title>
<polygon fill="none" stroke="#444443" stroke-width="0" points="415,-60 319,-60 319,0 415,0 415,-60"/>
<image xlink:href="C:\Users\Leige\AppData\Local\Temp/leaf7_7844.svg" width="88px" height="52px" preserveAspectRatio="xMinYMin meet" x="323" y="-56"/>
</g>
<!-- node5&#45;&gt;leaf7 -->
<g id="edge5" class="edge">
<title>node5&#45;&gt;leaf7</title>
<path fill="none" stroke="#444443" stroke-width="0.3" d="M350.42,-76.59C351.95,-72.39 353.5,-68.12 355.01,-63.97"/>
<polygon fill="#444443" stroke="#444443" stroke-width="0.3" points="356.33,-64.44 356.38,-60.2 353.7,-63.48 356.33,-64.44"/>
</g>
<!-- node1 -->
<g id="node3" class="node">
<title>node1</title>
<image xlink:href="C:\Users\Leige\AppData\Local\Temp/node1_7844.svg" width="141px" height="67px" preserveAspectRatio="xMinYMin meet" x="273" y="-239.5"/>
</g>
<!-- node1&#45;&gt;node2 -->
<g id="edge7" class="edge">
<title>node1&#45;&gt;node2</title>
<path fill="none" stroke="#444443" stroke-width="0.3" d="M271.82,-168.89C262.3,-164 252.51,-158.96 242.92,-154.03"/>
<polygon fill="#444443" stroke="#444443" stroke-width="0.3" points="243.31,-152.66 239.12,-152.07 242.03,-155.15 243.31,-152.66"/>
</g>
<!-- node1&#45;&gt;node5 -->
<g id="edge8" class="edge">
<title>node1&#45;&gt;node5</title>
<path fill="none" stroke="#444443" stroke-width="0.3" d="M340.56,-168.89C340.28,-164.73 340,-160.47 339.72,-156.26"/>
<polygon fill="#444443" stroke="#444443" stroke-width="0.3" points="341.1,-155.97 339.44,-152.07 338.31,-156.16 341.1,-155.97"/>
</g>
<!-- node8 -->
<g id="node6" class="node">
<title>node8</title>
<image xlink:href="C:\Users\Leige\AppData\Local\Temp/node8_7844.svg" width="141px" height="67px" preserveAspectRatio="xMinYMin meet" x="439" y="-239.5"/>
</g>
<!-- node1&#45;&gt;node8 -->
<!-- node9 -->
<g id="node4" class="node">
<title>node9</title>
<image xlink:href="C:\Users\Leige\AppData\Local\Temp/node9_7844.svg" width="141px" height="67px" preserveAspectRatio="xMinYMin meet" x="439" y="-147.5"/>
</g>
<!-- node12 -->
<g id="node5" class="node">
<title>node12</title>
<image xlink:href="C:\Users\Leige\AppData\Local\Temp/node12_7844.svg" width="141px" height="67px" preserveAspectRatio="xMinYMin meet" x="612" y="-147.5"/>
</g>
<!-- node9&#45;&gt;node12 -->
<!-- leaf10 -->
<g id="node12" class="node">
<title>leaf10</title>
<polygon fill="none" stroke="#444443" stroke-width="0" points="518,-60 422,-60 422,0 518,0 518,-60"/>
<image xlink:href="C:\Users\Leige\AppData\Local\Temp/leaf10_7844.svg" width="88px" height="52px" preserveAspectRatio="xMinYMin meet" x="426" y="-56"/>
</g>
<!-- node9&#45;&gt;leaf10 -->
<g id="edge10" class="edge">
<title>node9&#45;&gt;leaf10</title>
<path fill="none" stroke="#444443" stroke-width="0.3" d="M491.55,-76.59C489.57,-72.39 487.55,-68.12 485.59,-63.97"/>
<polygon fill="#444443" stroke="#444443" stroke-width="0.3" points="486.78,-63.22 483.8,-60.2 484.25,-64.42 486.78,-63.22"/>
</g>
<!-- leaf11 -->
<g id="node13" class="node">
<title>leaf11</title>
<polygon fill="none" stroke="#444443" stroke-width="0" points="628,-60 532,-60 532,0 628,0 628,-60"/>
<image xlink:href="C:\Users\Leige\AppData\Local\Temp/leaf11_7844.svg" width="88px" height="52px" preserveAspectRatio="xMinYMin meet" x="536" y="-56"/>
</g>
<!-- node9&#45;&gt;leaf11 -->
<g id="edge11" class="edge">
<title>node9&#45;&gt;leaf11</title>
<path fill="none" stroke="#444443" stroke-width="0.3" d="M540.76,-76.59C544.53,-72.22 548.35,-67.78 552.06,-63.47"/>
<polygon fill="#444443" stroke="#444443" stroke-width="0.3" points="553.32,-64.15 554.87,-60.2 551.2,-62.32 553.32,-64.15"/>
</g>
<!-- leaf13 -->
<g id="node14" class="node">
<title>leaf13</title>
<polygon fill="none" stroke="#444443" stroke-width="0" points="731,-60 635,-60 635,0 731,0 731,-60"/>
<image xlink:href="C:\Users\Leige\AppData\Local\Temp/leaf13_7844.svg" width="88px" height="52px" preserveAspectRatio="xMinYMin meet" x="639" y="-56"/>
</g>
<!-- node12&#45;&gt;leaf13 -->
<g id="edge13" class="edge">
<title>node12&#45;&gt;leaf13</title>
<path fill="none" stroke="#444443" stroke-width="0.3" d="M682.45,-76.59C682.5,-72.47 682.55,-68.3 682.6,-64.23"/>
<polygon fill="#444443" stroke="#444443" stroke-width="0.3" points="684,-64.22 682.65,-60.2 681.2,-64.19 684,-64.22"/>
</g>
<!-- leaf14 -->
<g id="node15" class="node">
<title>leaf14</title>
<polygon fill="none" stroke="#444443" stroke-width="0" points="845.5,-60 744.5,-60 744.5,0 845.5,0 845.5,-60"/>
<image xlink:href="C:\Users\Leige\AppData\Local\Temp/leaf14_7844.svg" width="93px" height="52px" preserveAspectRatio="xMinYMin meet" x="749" y="-56"/>
</g>
<!-- node12&#45;&gt;leaf14 -->
<g id="edge14" class="edge">
<title>node12&#45;&gt;leaf14</title>
<path fill="none" stroke="#444443" stroke-width="0.3" d="M732.22,-76.83C738.69,-72.11 745.26,-67.31 751.61,-62.68"/>
<polygon fill="#444443" stroke="#444443" stroke-width="0.3" points="752.7,-63.62 755.1,-60.13 751.05,-61.36 752.7,-63.62"/>
</g>
<!-- node8&#45;&gt;node9 -->
<g id="edge16" class="edge">
<title>node8&#45;&gt;node9</title>
<path fill="none" stroke="#444443" stroke-width="0.3" d="M509,-168.89C509,-164.73 509,-160.47 509,-156.26"/>
<polygon fill="#444443" stroke="#444443" stroke-width="0.3" points="510.4,-156.07 509,-152.07 507.6,-156.07 510.4,-156.07"/>
</g>
<!-- node8&#45;&gt;node12 -->
<g id="edge17" class="edge">
<title>node8&#45;&gt;node12</title>
<path fill="none" stroke="#444443" stroke-width="0.3" d="M579.37,-168.89C588.78,-164 598.46,-158.96 607.93,-154.03"/>
<polygon fill="#444443" stroke="#444443" stroke-width="0.3" points="608.79,-155.16 611.7,-152.07 607.5,-152.68 608.79,-155.16"/>
</g>
<!-- node0 -->
<g id="node7" class="node">
<title>node0</title>
<image xlink:href="C:\Users\Leige\AppData\Local\Temp/node0_7844.svg" width="153px" height="67px" preserveAspectRatio="xMinYMin meet" x="348" y="-345.5"/>
</g>
<!-- node0&#45;&gt;node1 -->
<g id="edge19" class="edge">
<title>node0&#45;&gt;node1</title>
<path fill="none" stroke="#444443" stroke-width="0.3" d="M395.44,-274.83C388.55,-265.98 381.14,-256.47 374.13,-247.48"/>
<polygon fill="#444443" stroke="#444443" stroke-width="0.3" points="375.14,-246.48 371.57,-244.19 372.93,-248.2 375.14,-246.48"/>
<text text-anchor="start" x="389" y="-255.8" font-family="Times New Roman,serif" font-size="14.00">≤</text>
</g>
<!-- node0&#45;&gt;node8 -->
<g id="edge20" class="edge">
<title>node0&#45;&gt;node8</title>
<path fill="none" stroke="#444443" stroke-width="0.3" d="M453.97,-274.83C461.2,-265.98 468.97,-256.47 476.33,-247.48"/>
<polygon fill="#444443" stroke="#444443" stroke-width="0.3" points="477.57,-248.17 479.02,-244.19 475.4,-246.4 477.57,-248.17"/>
<text text-anchor="start" x="472" y="-255.8" font-family="Times New Roman,serif" font-size="14.00">&gt;</text>
</g>
<!-- leaf3&#45;&gt;leaf4 -->
<!-- leaf6&#45;&gt;leaf7 -->
<!-- leaf10&#45;&gt;leaf11 -->
<!-- leaf13&#45;&gt;leaf14 -->
</g>
</svg>
