<?xml version="1.0" encoding="UTF-8" standalone="no"?>
<!DOCTYPE svg PUBLIC "-//W3C//DTD SVG 1.1//EN"
 "http://www.w3.org/Graphics/SVG/1.1/DTD/svg11.dtd">
<!-- Generated by graphviz version 3.0.0 (20220226.1711)
 -->
<!-- Title: G Pages: 1 -->
<svg width="563pt" height="557pt"
 viewBox="0.00 0.00 563.00 557.00" xmlns="http://www.w3.org/2000/svg" xmlns:xlink="http://www.w3.org/1999/xlink">
<g id="graph0" class="graph" transform="scale(1 1) rotate(0) translate(4 553)">
<title>G</title>
<polygon fill="white" stroke="transparent" points="-4,4 -4,-553 559,-553 559,4 -4,4"/>
<!-- node2 -->
<g id="node1" class="node">
<title>node2</title>
<image xlink:href="C:\Users\Leige\AppData\Local\Temp/node2_19228.svg" width="123px" height="65px" preserveAspectRatio="xMinYMin meet" x="329.5" y="-461.5"/>
</g>
<!-- node5 -->
<g id="node2" class="node">
<title>node5</title>
<image xlink:href="C:\Users\Leige\AppData\Local\Temp/node5_19228.svg" width="127px" height="65px" preserveAspectRatio="xMinYMin meet" x="327.5" y="-348.5"/>
</g>
<!-- node2&#45;&gt;node5 -->
<!-- leaf3 -->
<g id="node8" class="node">
<title>leaf3</title>
<polygon fill="none" stroke="#444443" stroke-width="0" points="555,-549 475,-549 475,-490 555,-490 555,-549"/>
<image xlink:href="C:\Users\Leige\AppData\Local\Temp/leaf3_19228.svg" width="72px" height="51px" preserveAspectRatio="xMinYMin meet" x="479" y="-544.5"/>
</g>
<!-- node2&#45;&gt;leaf3 -->
<g id="edge1" class="edge">
<title>node2&#45;&gt;leaf3</title>
<path fill="none" stroke="#444443" stroke-width="0.3" d="M441.33,-466.11C451.32,-473.45 461.74,-481.11 471.47,-488.25"/>
<polygon fill="#444443" stroke="#444443" stroke-width="0.3" points="470.68,-489.41 474.73,-490.65 472.34,-487.16 470.68,-489.41"/>
</g>
<!-- leaf4 -->
<g id="node9" class="node">
<title>leaf4</title>
<polygon fill="none" stroke="#444443" stroke-width="0" points="555,-476 475,-476 475,-417 555,-417 555,-476"/>
<image xlink:href="C:\Users\Leige\AppData\Local\Temp/leaf4_19228.svg" width="72px" height="51px" preserveAspectRatio="xMinYMin meet" x="479" y="-471.5"/>
</g>
<!-- node2&#45;&gt;leaf4 -->
<g id="edge2" class="edge">
<title>node2&#45;&gt;leaf4</title>
<path fill="none" stroke="#444443" stroke-width="0.3" d="M456.34,-438.5C461.17,-439.17 465.97,-439.84 470.63,-440.48"/>
<polygon fill="#444443" stroke="#444443" stroke-width="0.3" points="470.7,-441.9 474.85,-441.07 471.08,-439.13 470.7,-441.9"/>
</g>
<!-- leaf6 -->
<g id="node10" class="node">
<title>leaf6</title>
<polygon fill="none" stroke="#444443" stroke-width="0" points="555,-410 475,-410 475,-351 555,-351 555,-410"/>
<image xlink:href="C:\Users\Leige\AppData\Local\Temp/leaf6_19228.svg" width="72px" height="51px" preserveAspectRatio="xMinYMin meet" x="479" y="-405.5"/>
</g>
<!-- node5&#45;&gt;leaf6 -->
<g id="edge4" class="edge">
<title>node5&#45;&gt;leaf6</title>
<path fill="none" stroke="#444443" stroke-width="0.3" d="M458.13,-351.31C462.6,-353.65 467.03,-355.96 471.33,-358.21"/>
<polygon fill="#444443" stroke="#444443" stroke-width="0.3" points="470.71,-359.46 474.91,-360.08 472.01,-356.98 470.71,-359.46"/>
</g>
<!-- leaf7 -->
<g id="node11" class="node">
<title>leaf7</title>
<polygon fill="none" stroke="#444443" stroke-width="0" points="555,-337 475,-337 475,-278 555,-278 555,-337"/>
<image xlink:href="C:\Users\Leige\AppData\Local\Temp/leaf7_19228.svg" width="72px" height="51px" preserveAspectRatio="xMinYMin meet" x="479" y="-332.5"/>
</g>
<!-- node5&#45;&gt;leaf7 -->
<g id="edge5" class="edge">
<title>node5&#45;&gt;leaf7</title>
<path fill="none" stroke="#444443" stroke-width="0.3" d="M458.13,-311.6C462.42,-311.29 466.68,-310.98 470.81,-310.67"/>
<polygon fill="#444443" stroke="#444443" stroke-width="0.3" points="471.02,-312.06 474.91,-310.37 470.82,-309.27 471.02,-312.06"/>
</g>
<!-- node1 -->
<g id="node3" class="node">
<title>node1</title>
<image xlink:href="C:\Users\Leige\AppData\Local\Temp/node1_19228.svg" width="127px" height="65px" preserveAspectRatio="xMinYMin meet" x="175.5" y="-347.5"/>
</g>
<!-- node1&#45;&gt;node2 -->
<g id="edge7" class="edge">
<title>node1&#45;&gt;node2</title>
<path fill="none" stroke="#444443" stroke-width="0.3" d="M287.79,-352.2C303.84,-364.4 321.78,-378.03 338.07,-390.41"/>
<polygon fill="#444443" stroke="#444443" stroke-width="0.3" points="337.27,-391.57 341.3,-392.87 338.97,-389.34 337.27,-391.57"/>
</g>
<!-- node1&#45;&gt;node5 -->
<g id="edge8" class="edge">
<title>node1&#45;&gt;node5</title>
<path fill="none" stroke="#444443" stroke-width="0.3" d="M306.17,-315.94C310.27,-315.97 314.42,-316 318.54,-316.03"/>
<polygon fill="#444443" stroke="#444443" stroke-width="0.3" points="318.65,-317.43 322.66,-316.05 318.67,-314.63 318.65,-317.43"/>
</g>
<!-- node8 -->
<g id="node6" class="node">
<title>node8</title>
<image xlink:href="C:\Users\Leige\AppData\Local\Temp/node8_19228.svg" width="127px" height="65px" preserveAspectRatio="xMinYMin meet" x="175.5" y="-252.5"/>
</g>
<!-- node1&#45;&gt;node8 -->
<!-- node9 -->
<g id="node4" class="node">
<title>node9</title>
<image xlink:href="C:\Users\Leige\AppData\Local\Temp/node9_19228.svg" width="127px" height="65px" preserveAspectRatio="xMinYMin meet" x="327.5" y="-235.5"/>
</g>
<!-- node12 -->
<g id="node5" class="node">
<title>node12</title>
<image xlink:href="C:\Users\Leige\AppData\Local\Temp/node12_19228.svg" width="126px" height="65px" preserveAspectRatio="xMinYMin meet" x="327.5" y="-144.5"/>
</g>
<!-- node9&#45;&gt;node12 -->
<!-- leaf10 -->
<g id="node12" class="node">
<title>leaf10</title>
<polygon fill="none" stroke="#444443" stroke-width="0" points="555,-271 475,-271 475,-212 555,-212 555,-271"/>
<image xlink:href="C:\Users\Leige\AppData\Local\Temp/leaf10_19228.svg" width="72px" height="51px" preserveAspectRatio="xMinYMin meet" x="479" y="-266.5"/>
</g>
<!-- node9&#45;&gt;leaf10 -->
<g id="edge10" class="edge">
<title>node9&#45;&gt;leaf10</title>
<path fill="none" stroke="#444443" stroke-width="0.3" d="M458.13,-224.17C462.51,-225.53 466.85,-226.88 471.07,-228.18"/>
<polygon fill="#444443" stroke="#444443" stroke-width="0.3" points="470.67,-229.53 474.91,-229.37 471.5,-226.85 470.67,-229.53"/>
</g>
<!-- leaf11 -->
<g id="node13" class="node">
<title>leaf11</title>
<polygon fill="none" stroke="#444443" stroke-width="0" points="555,-198 475,-198 475,-139 555,-139 555,-198"/>
<image xlink:href="C:\Users\Leige\AppData\Local\Temp/leaf11_19228.svg" width="72px" height="51px" preserveAspectRatio="xMinYMin meet" x="479" y="-193.5"/>
</g>
<!-- node9&#45;&gt;leaf11 -->
<g id="edge11" class="edge">
<title>node9&#45;&gt;leaf11</title>
<path fill="none" stroke="#444443" stroke-width="0.3" d="M458.13,-184.46C462.42,-183.24 466.68,-182.02 470.81,-180.84"/>
<polygon fill="#444443" stroke="#444443" stroke-width="0.3" points="471.45,-182.11 474.91,-179.67 470.68,-179.42 471.45,-182.11"/>
</g>
<!-- leaf13 -->
<g id="node14" class="node">
<title>leaf13</title>
<polygon fill="none" stroke="#444443" stroke-width="0" points="555,-132 475,-132 475,-73 555,-73 555,-132"/>
<image xlink:href="C:\Users\Leige\AppData\Local\Temp/leaf13_19228.svg" width="72px" height="51px" preserveAspectRatio="xMinYMin meet" x="479" y="-127.5"/>
</g>
<!-- node12&#45;&gt;leaf13 -->
<g id="edge13" class="edge">
<title>node12&#45;&gt;leaf13</title>
<path fill="none" stroke="#444443" stroke-width="0.3" d="M457.77,-107.09C462.17,-106.73 466.53,-106.38 470.77,-106.03"/>
<polygon fill="#444443" stroke="#444443" stroke-width="0.3" points="471.08,-107.41 474.96,-105.69 470.86,-104.62 471.08,-107.41"/>
</g>
<!-- leaf14 -->
<g id="node15" class="node">
<title>leaf14</title>
<polygon fill="none" stroke="#444443" stroke-width="0" points="555,-59 475,-59 475,0 555,0 555,-59"/>
<image xlink:href="C:\Users\Leige\AppData\Local\Temp/leaf14_19228.svg" width="72px" height="51px" preserveAspectRatio="xMinYMin meet" x="479" y="-54.5"/>
</g>
<!-- node12&#45;&gt;leaf14 -->
<g id="edge14" class="edge">
<title>node12&#45;&gt;leaf14</title>
<path fill="none" stroke="#444443" stroke-width="0.3" d="M445.59,-75.85C454.22,-70 463.05,-64.02 471.38,-58.38"/>
<polygon fill="#444443" stroke="#444443" stroke-width="0.3" points="472.38,-59.39 474.91,-55.99 470.81,-57.07 472.38,-59.39"/>
</g>
<!-- node8&#45;&gt;node9 -->
<g id="edge16" class="edge">
<title>node8&#45;&gt;node9</title>
<path fill="none" stroke="#444443" stroke-width="0.3" d="M306.17,-212.94C310.27,-212.48 314.42,-212.01 318.54,-211.54"/>
<polygon fill="#444443" stroke="#444443" stroke-width="0.3" points="318.84,-212.92 322.66,-211.08 318.53,-210.13 318.84,-212.92"/>
</g>
<!-- node8&#45;&gt;node12 -->
<g id="edge17" class="edge">
<title>node8&#45;&gt;node12</title>
<path fill="none" stroke="#444443" stroke-width="0.3" d="M290.28,-183.94C304.82,-173.47 320.72,-162.02 335.45,-151.42"/>
<polygon fill="#444443" stroke="#444443" stroke-width="0.3" points="336.34,-152.5 338.77,-149.03 334.7,-150.23 336.34,-152.5"/>
</g>
<!-- node0 -->
<g id="node7" class="node">
<title>node0</title>
<image xlink:href="C:\Users\Leige\AppData\Local\Temp/node0_19228.svg" width="138px" height="65px" preserveAspectRatio="xMinYMin meet" x="4" y="-295.5"/>
</g>
<!-- node0&#45;&gt;node1 -->
<g id="edge19" class="edge">
<title>node0&#45;&gt;node1</title>
<path fill="none" stroke="#444443" stroke-width="0.3" d="M146.19,-286.46C153.12,-288.66 160.14,-290.9 167.05,-293.09"/>
<polygon fill="#444443" stroke="#444443" stroke-width="0.3" points="166.64,-294.43 170.88,-294.31 167.49,-291.77 166.64,-294.43"/>
<text text-anchor="start" x="154.5" y="-294.3" font-family="Times New Roman,serif" font-size="14.00">≤</text>
</g>
<!-- node0&#45;&gt;node8 -->
<g id="edge20" class="edge">
<title>node0&#45;&gt;node8</title>
<path fill="none" stroke="#444443" stroke-width="0.3" d="M146.19,-244.51C152.99,-242.73 159.88,-240.91 166.67,-239.13"/>
<polygon fill="#444443" stroke="#444443" stroke-width="0.3" points="167.37,-240.39 170.88,-238.02 166.66,-237.68 167.37,-240.39"/>
<text text-anchor="start" x="154" y="-245.3" font-family="Times New Roman,serif" font-size="14.00">&gt;</text>
</g>
<!-- leaf3&#45;&gt;leaf4 -->
<!-- leaf6&#45;&gt;leaf7 -->
<!-- leaf10&#45;&gt;leaf11 -->
<!-- leaf13&#45;&gt;leaf14 -->
</g>
</svg>
